<mxfile host="Electron" modified="2024-03-05T15:15:36.095Z" agent="Mozilla/5.0 (Windows NT 10.0; Win64; x64) AppleWebKit/537.36 (KHTML, like Gecko) draw.io/23.0.2 Chrome/120.0.6099.109 Electron/28.1.0 Safari/537.36" etag="0CZzejLNfS6lNXu5rq3f" version="23.0.2" type="device">
  <diagram name="Page-1" id="too_large_distance">
    <mxGraphModel dx="1160" dy="1363" grid="1" gridSize="10" guides="1" tooltips="1" connect="1" arrows="1" fold="1" page="1" pageScale="1" pageWidth="827" pageHeight="1169" math="1" shadow="0">
      <root>
        <mxCell id="0" />
        <mxCell id="1" parent="0" />
        <mxCell id="collsionpoint-0" value="" style="ellipse;whiteSpace=wrap;html=1;aspect=fixed;fontSize=20;fillColor=#eeeeee;strokeColor=#36393d;" parent="1" vertex="1">
          <mxGeometry x="-5" y="-15" width="30" height="30" as="geometry" />
        </mxCell>
        <mxCell id="collsionpoint-1" value="" style="ellipse;whiteSpace=wrap;html=1;aspect=fixed;fontSize=20;fillColor=#eeeeee;strokeColor=#36393d;" parent="1" vertex="1">
          <mxGeometry x="15" y="-15" width="30" height="30" as="geometry" />
        </mxCell>
        <mxCell id="collsionpoint-2" value="" style="ellipse;whiteSpace=wrap;html=1;aspect=fixed;fontSize=20;fillColor=#eeeeee;strokeColor=#36393d;" parent="1" vertex="1">
          <mxGeometry x="35" y="-15" width="30" height="30" as="geometry" />
        </mxCell>
        <mxCell id="collsionpoint-3" value="" style="ellipse;whiteSpace=wrap;html=1;aspect=fixed;fontSize=20;fillColor=#eeeeee;strokeColor=#36393d;" parent="1" vertex="1">
          <mxGeometry x="55" y="-15" width="30" height="30" as="geometry" />
        </mxCell>
        <mxCell id="collsionpoint-4" value="" style="ellipse;whiteSpace=wrap;html=1;aspect=fixed;fontSize=20;fillColor=#eeeeee;strokeColor=#36393d;" parent="1" vertex="1">
          <mxGeometry x="75" y="-15" width="30" height="30" as="geometry" />
        </mxCell>
        <mxCell id="collsionpoint-5" value="" style="ellipse;whiteSpace=wrap;html=1;aspect=fixed;fontSize=20;fillColor=#eeeeee;strokeColor=#36393d;" parent="1" vertex="1">
          <mxGeometry x="95" y="-15" width="30" height="30" as="geometry" />
        </mxCell>
        <mxCell id="collsionpoint-6" value="" style="ellipse;whiteSpace=wrap;html=1;aspect=fixed;fontSize=20;fillColor=#eeeeee;strokeColor=#36393d;" parent="1" vertex="1">
          <mxGeometry x="115" y="-15" width="30" height="30" as="geometry" />
        </mxCell>
        <mxCell id="collsionpoint-7" value="" style="ellipse;whiteSpace=wrap;html=1;aspect=fixed;fontSize=20;fillColor=#eeeeee;strokeColor=#36393d;" parent="1" vertex="1">
          <mxGeometry x="135" y="-15" width="30" height="30" as="geometry" />
        </mxCell>
        <mxCell id="collsionpoint-8" value="" style="ellipse;whiteSpace=wrap;html=1;aspect=fixed;fontSize=20;fillColor=#eeeeee;strokeColor=#36393d;" parent="1" vertex="1">
          <mxGeometry x="155" y="-15" width="30" height="30" as="geometry" />
        </mxCell>
        <mxCell id="collsionpoint-9" value="" style="ellipse;whiteSpace=wrap;html=1;aspect=fixed;fontSize=20;fillColor=#eeeeee;strokeColor=#36393d;" parent="1" vertex="1">
          <mxGeometry x="175" y="-15" width="30" height="30" as="geometry" />
        </mxCell>
        <mxCell id="collsionpoint-10" value="" style="ellipse;whiteSpace=wrap;html=1;aspect=fixed;fontSize=20;fillColor=#eeeeee;strokeColor=#36393d;" parent="1" vertex="1">
          <mxGeometry x="195" y="-15" width="30" height="30" as="geometry" />
        </mxCell>
        <mxCell id="collsionpoint-11" value="" style="ellipse;whiteSpace=wrap;html=1;aspect=fixed;fontSize=20;fillColor=#eeeeee;strokeColor=#36393d;" parent="1" vertex="1">
          <mxGeometry x="215" y="-15" width="30" height="30" as="geometry" />
        </mxCell>
        <mxCell id="collsionpoint-12" value="" style="ellipse;whiteSpace=wrap;html=1;aspect=fixed;fontSize=20;fillColor=#eeeeee;strokeColor=#36393d;" parent="1" vertex="1">
          <mxGeometry x="235" y="-15" width="30" height="30" as="geometry" />
        </mxCell>
        <mxCell id="collsionpoint-13" value="" style="ellipse;whiteSpace=wrap;html=1;aspect=fixed;fontSize=20;fillColor=#eeeeee;strokeColor=#36393d;" parent="1" vertex="1">
          <mxGeometry x="255" y="-15" width="30" height="30" as="geometry" />
        </mxCell>
        <mxCell id="collsionpoint-14" value="" style="ellipse;whiteSpace=wrap;html=1;aspect=fixed;fontSize=20;fillColor=#eeeeee;strokeColor=#36393d;" parent="1" vertex="1">
          <mxGeometry x="275" y="-15" width="30" height="30" as="geometry" />
        </mxCell>
        <mxCell id="collsionpoint-15" value="" style="ellipse;whiteSpace=wrap;html=1;aspect=fixed;fontSize=20;fillColor=#eeeeee;strokeColor=#36393d;" parent="1" vertex="1">
          <mxGeometry x="295" y="-15" width="30" height="30" as="geometry" />
        </mxCell>
        <mxCell id="collsionpoint-16" value="" style="ellipse;whiteSpace=wrap;html=1;aspect=fixed;fontSize=20;fillColor=#eeeeee;strokeColor=#36393d;" parent="1" vertex="1">
          <mxGeometry x="315" y="-15" width="30" height="30" as="geometry" />
        </mxCell>
        <mxCell id="collsionpoint-17" value="" style="ellipse;whiteSpace=wrap;html=1;aspect=fixed;fontSize=20;fillColor=#eeeeee;strokeColor=#36393d;" parent="1" vertex="1">
          <mxGeometry x="335" y="-15" width="30" height="30" as="geometry" />
        </mxCell>
        <mxCell id="collsionpoint-18" value="" style="ellipse;whiteSpace=wrap;html=1;aspect=fixed;fontSize=20;fillColor=#eeeeee;strokeColor=#36393d;" parent="1" vertex="1">
          <mxGeometry x="355" y="-15" width="30" height="30" as="geometry" />
        </mxCell>
        <mxCell id="collsionpoint-19" value="" style="ellipse;whiteSpace=wrap;html=1;aspect=fixed;fontSize=20;fillColor=#eeeeee;strokeColor=#36393d;" parent="1" vertex="1">
          <mxGeometry x="375" y="-15" width="30" height="30" as="geometry" />
        </mxCell>
        <mxCell id="collsionpoint-20" value="" style="ellipse;whiteSpace=wrap;html=1;aspect=fixed;fontSize=20;fillColor=#eeeeee;strokeColor=#36393d;" parent="1" vertex="1">
          <mxGeometry x="395" y="-15" width="30" height="30" as="geometry" />
        </mxCell>
        <mxCell id="collsionpoint-21" value="" style="ellipse;whiteSpace=wrap;html=1;aspect=fixed;fontSize=20;fillColor=#eeeeee;strokeColor=#36393d;" parent="1" vertex="1">
          <mxGeometry x="415" y="-15" width="30" height="30" as="geometry" />
        </mxCell>
        <mxCell id="collsionpoint-22" value="" style="ellipse;whiteSpace=wrap;html=1;aspect=fixed;fontSize=20;fillColor=#eeeeee;strokeColor=#36393d;" parent="1" vertex="1">
          <mxGeometry x="435" y="-15" width="30" height="30" as="geometry" />
        </mxCell>
        <mxCell id="collsionpoint-23" value="" style="ellipse;whiteSpace=wrap;html=1;aspect=fixed;fontSize=20;fillColor=#eeeeee;strokeColor=#36393d;" parent="1" vertex="1">
          <mxGeometry x="455" y="-15" width="30" height="30" as="geometry" />
        </mxCell>
        <mxCell id="collsionpoint-24" value="" style="ellipse;whiteSpace=wrap;html=1;aspect=fixed;fontSize=20;fillColor=#eeeeee;strokeColor=#36393d;" parent="1" vertex="1">
          <mxGeometry x="475" y="-15" width="30" height="30" as="geometry" />
        </mxCell>
        <mxCell id="collsionpoint-25" value="" style="ellipse;whiteSpace=wrap;html=1;aspect=fixed;fontSize=20;fillColor=#eeeeee;strokeColor=#36393d;" parent="1" vertex="1">
          <mxGeometry x="495" y="-15" width="30" height="30" as="geometry" />
        </mxCell>
        <mxCell id="collsionpoint-26" value="" style="ellipse;whiteSpace=wrap;html=1;aspect=fixed;fontSize=20;fillColor=#eeeeee;strokeColor=#36393d;" parent="1" vertex="1">
          <mxGeometry x="515" y="-15" width="30" height="30" as="geometry" />
        </mxCell>
        <mxCell id="collsionpoint-27" value="" style="ellipse;whiteSpace=wrap;html=1;aspect=fixed;fontSize=20;fillColor=#eeeeee;strokeColor=#36393d;" parent="1" vertex="1">
          <mxGeometry x="535" y="-15" width="30" height="30" as="geometry" />
        </mxCell>
        <mxCell id="collsionpoint-28" value="" style="ellipse;whiteSpace=wrap;html=1;aspect=fixed;fontSize=20;fillColor=#eeeeee;strokeColor=#36393d;" parent="1" vertex="1">
          <mxGeometry x="555" y="-15" width="30" height="30" as="geometry" />
        </mxCell>
        <mxCell id="collsionpoint-29" value="" style="ellipse;whiteSpace=wrap;html=1;aspect=fixed;fontSize=20;fillColor=#eeeeee;strokeColor=#36393d;" parent="1" vertex="1">
          <mxGeometry x="575" y="-15" width="30" height="30" as="geometry" />
        </mxCell>
        <mxCell id="collsionpoint-30" value="" style="ellipse;whiteSpace=wrap;html=1;aspect=fixed;fontSize=20;fillColor=#eeeeee;strokeColor=#36393d;" parent="1" vertex="1">
          <mxGeometry x="595" y="-15" width="30" height="30" as="geometry" />
        </mxCell>
        <mxCell id="collsionpoint-31" value="" style="ellipse;whiteSpace=wrap;html=1;aspect=fixed;fontSize=20;fillColor=#eeeeee;strokeColor=#36393d;" parent="1" vertex="1">
          <mxGeometry x="615" y="-15" width="30" height="30" as="geometry" />
        </mxCell>
        <mxCell id="collsionpoint-32" value="" style="ellipse;whiteSpace=wrap;html=1;aspect=fixed;fontSize=20;fillColor=#eeeeee;strokeColor=#36393d;" parent="1" vertex="1">
          <mxGeometry x="635" y="-15" width="30" height="30" as="geometry" />
        </mxCell>
        <mxCell id="collsionpoint-33" value="" style="ellipse;whiteSpace=wrap;html=1;aspect=fixed;fontSize=20;fillColor=#eeeeee;strokeColor=#36393d;" parent="1" vertex="1">
          <mxGeometry x="655" y="-15" width="30" height="30" as="geometry" />
        </mxCell>
        <mxCell id="collsionpoint-34" value="" style="ellipse;whiteSpace=wrap;html=1;aspect=fixed;fontSize=20;fillColor=#eeeeee;strokeColor=#36393d;" parent="1" vertex="1">
          <mxGeometry x="675" y="-15" width="30" height="30" as="geometry" />
        </mxCell>
        <mxCell id="collsionpoint-35" value="" style="ellipse;whiteSpace=wrap;html=1;aspect=fixed;fontSize=20;fillColor=#eeeeee;strokeColor=#36393d;" parent="1" vertex="1">
          <mxGeometry x="695" y="-15" width="30" height="30" as="geometry" />
        </mxCell>
        <mxCell id="collsionpoint-36" value="" style="ellipse;whiteSpace=wrap;html=1;aspect=fixed;fontSize=20;fillColor=#eeeeee;strokeColor=#36393d;" parent="1" vertex="1">
          <mxGeometry x="715" y="-15" width="30" height="30" as="geometry" />
        </mxCell>
        <mxCell id="collsionpoint-37" value="" style="ellipse;whiteSpace=wrap;html=1;aspect=fixed;fontSize=20;fillColor=#eeeeee;strokeColor=#36393d;" parent="1" vertex="1">
          <mxGeometry x="735" y="-15" width="30" height="30" as="geometry" />
        </mxCell>
        <mxCell id="collsionpoint-38" value="" style="ellipse;whiteSpace=wrap;html=1;aspect=fixed;fontSize=20;fillColor=#eeeeee;strokeColor=#36393d;" parent="1" vertex="1">
          <mxGeometry x="755" y="-15" width="30" height="30" as="geometry" />
        </mxCell>
        <mxCell id="collsionpoint-39" value="" style="ellipse;whiteSpace=wrap;html=1;aspect=fixed;fontSize=20;fillColor=#eeeeee;strokeColor=#36393d;" parent="1" vertex="1">
          <mxGeometry x="775" y="-15" width="30" height="30" as="geometry" />
        </mxCell>
        <mxCell id="collsionpoint-40" value="" style="ellipse;whiteSpace=wrap;html=1;aspect=fixed;fontSize=20;fillColor=#eeeeee;strokeColor=#36393d;" parent="1" vertex="1">
          <mxGeometry x="795" y="-15" width="30" height="30" as="geometry" />
        </mxCell>
        <mxCell id="collsionpoint-41" value="" style="ellipse;whiteSpace=wrap;html=1;aspect=fixed;fontSize=20;fillColor=#eeeeee;strokeColor=#36393d;" parent="1" vertex="1">
          <mxGeometry x="815" y="-15" width="30" height="30" as="geometry" />
        </mxCell>
        <mxCell id="collsionpoint-42" value="" style="ellipse;whiteSpace=wrap;html=1;aspect=fixed;fontSize=20;fillColor=#eeeeee;strokeColor=#36393d;" parent="1" vertex="1">
          <mxGeometry x="835" y="-15" width="30" height="30" as="geometry" />
        </mxCell>
        <mxCell id="collsionpoint-43" value="" style="ellipse;whiteSpace=wrap;html=1;aspect=fixed;fontSize=20;fillColor=#eeeeee;strokeColor=#36393d;" parent="1" vertex="1">
          <mxGeometry x="855" y="-15" width="30" height="30" as="geometry" />
        </mxCell>
        <mxCell id="collsionpoint-44" value="" style="ellipse;whiteSpace=wrap;html=1;aspect=fixed;fontSize=20;fillColor=#eeeeee;strokeColor=#36393d;" parent="1" vertex="1">
          <mxGeometry x="875" y="-15" width="30" height="30" as="geometry" />
        </mxCell>
        <mxCell id="collsionpoint-45" value="" style="ellipse;whiteSpace=wrap;html=1;aspect=fixed;fontSize=20;fillColor=#eeeeee;strokeColor=#36393d;" parent="1" vertex="1">
          <mxGeometry x="895" y="-15" width="30" height="30" as="geometry" />
        </mxCell>
        <mxCell id="collsionpoint-46" value="" style="ellipse;whiteSpace=wrap;html=1;aspect=fixed;fontSize=20;fillColor=#eeeeee;strokeColor=#36393d;" parent="1" vertex="1">
          <mxGeometry x="915" y="-15" width="30" height="30" as="geometry" />
        </mxCell>
        <mxCell id="collsionpoint-47" value="" style="ellipse;whiteSpace=wrap;html=1;aspect=fixed;fontSize=20;fillColor=#eeeeee;strokeColor=#36393d;" parent="1" vertex="1">
          <mxGeometry x="935" y="-15" width="30" height="30" as="geometry" />
        </mxCell>
        <mxCell id="collsionpoint-48" value="" style="ellipse;whiteSpace=wrap;html=1;aspect=fixed;fontSize=20;fillColor=#eeeeee;strokeColor=#36393d;" parent="1" vertex="1">
          <mxGeometry x="955" y="-15" width="30" height="30" as="geometry" />
        </mxCell>
        <mxCell id="collsionpoint-49" value="" style="ellipse;whiteSpace=wrap;html=1;aspect=fixed;fontSize=20;fillColor=#eeeeee;strokeColor=#36393d;" parent="1" vertex="1">
          <mxGeometry x="975" y="-15" width="30" height="30" as="geometry" />
        </mxCell>
        <mxCell id="collsionpoint-50" value="" style="ellipse;whiteSpace=wrap;html=1;aspect=fixed;fontSize=20;fillColor=#eeeeee;strokeColor=#36393d;" parent="1" vertex="1">
          <mxGeometry x="995" y="-15" width="30" height="30" as="geometry" />
        </mxCell>
        <mxCell id="collsionpoint-51" value="" style="ellipse;whiteSpace=wrap;html=1;aspect=fixed;fontSize=20;fillColor=#eeeeee;strokeColor=#36393d;" parent="1" vertex="1">
          <mxGeometry x="1015" y="-15" width="30" height="30" as="geometry" />
        </mxCell>
        <mxCell id="collsionpoint-52" value="" style="ellipse;whiteSpace=wrap;html=1;aspect=fixed;fontSize=20;fillColor=#eeeeee;strokeColor=#36393d;" parent="1" vertex="1">
          <mxGeometry x="1035" y="-15" width="30" height="30" as="geometry" />
        </mxCell>
        <mxCell id="collsionpoint-53" value="" style="ellipse;whiteSpace=wrap;html=1;aspect=fixed;fontSize=20;fillColor=#eeeeee;strokeColor=#36393d;" parent="1" vertex="1">
          <mxGeometry x="1055" y="-15" width="30" height="30" as="geometry" />
        </mxCell>
        <mxCell id="collsionpoint-54" value="" style="ellipse;whiteSpace=wrap;html=1;aspect=fixed;fontSize=20;fillColor=#eeeeee;strokeColor=#36393d;" parent="1" vertex="1">
          <mxGeometry x="1075" y="-15" width="30" height="30" as="geometry" />
        </mxCell>
        <mxCell id="collsionpoint-55" value="" style="ellipse;whiteSpace=wrap;html=1;aspect=fixed;fontSize=20;fillColor=#eeeeee;strokeColor=#36393d;" parent="1" vertex="1">
          <mxGeometry x="1095" y="-15" width="30" height="30" as="geometry" />
        </mxCell>
        <mxCell id="collsionpoint-56" value="" style="ellipse;whiteSpace=wrap;html=1;aspect=fixed;fontSize=20;fillColor=#eeeeee;strokeColor=#36393d;" parent="1" vertex="1">
          <mxGeometry x="1115" y="-15" width="30" height="30" as="geometry" />
        </mxCell>
        <mxCell id="collsionpoint-57" value="" style="ellipse;whiteSpace=wrap;html=1;aspect=fixed;fontSize=20;fillColor=#eeeeee;strokeColor=#36393d;" parent="1" vertex="1">
          <mxGeometry x="1135" y="-15" width="30" height="30" as="geometry" />
        </mxCell>
        <mxCell id="collsionpoint-58" value="" style="ellipse;whiteSpace=wrap;html=1;aspect=fixed;fontSize=20;fillColor=#eeeeee;strokeColor=#36393d;" parent="1" vertex="1">
          <mxGeometry x="1155" y="-15" width="30" height="30" as="geometry" />
        </mxCell>
        <mxCell id="collsionpoint-59" value="" style="ellipse;whiteSpace=wrap;html=1;aspect=fixed;fontSize=20;fillColor=#eeeeee;strokeColor=#36393d;" parent="1" vertex="1">
          <mxGeometry x="1175" y="-15" width="30" height="30" as="geometry" />
        </mxCell>
        <mxCell id="collsionpoint-60" value="" style="ellipse;whiteSpace=wrap;html=1;aspect=fixed;fontSize=20;fillColor=#eeeeee;strokeColor=#36393d;" parent="1" vertex="1">
          <mxGeometry x="1195" y="-15" width="30" height="30" as="geometry" />
        </mxCell>
        <mxCell id="collsionpoint-61" value="" style="ellipse;whiteSpace=wrap;html=1;aspect=fixed;fontSize=20;fillColor=#eeeeee;strokeColor=#36393d;" parent="1" vertex="1">
          <mxGeometry x="1215" y="-15" width="30" height="30" as="geometry" />
        </mxCell>
        <mxCell id="collsionpoint-62" value="" style="ellipse;whiteSpace=wrap;html=1;aspect=fixed;fontSize=20;fillColor=#eeeeee;strokeColor=#36393d;" parent="1" vertex="1">
          <mxGeometry x="1235" y="-15" width="30" height="30" as="geometry" />
        </mxCell>
        <mxCell id="collsionpoint-63" value="" style="ellipse;whiteSpace=wrap;html=1;aspect=fixed;fontSize=20;fillColor=#eeeeee;strokeColor=#36393d;" parent="1" vertex="1">
          <mxGeometry x="55" y="5" width="30" height="30" as="geometry" />
        </mxCell>
        <mxCell id="collsionpoint-64" value="" style="ellipse;whiteSpace=wrap;html=1;aspect=fixed;fontSize=20;fillColor=#eeeeee;strokeColor=#36393d;" parent="1" vertex="1">
          <mxGeometry x="595" y="5" width="30" height="30" as="geometry" />
        </mxCell>
        <mxCell id="collsionpoint-65" value="" style="ellipse;whiteSpace=wrap;html=1;aspect=fixed;fontSize=20;fillColor=#eeeeee;strokeColor=#36393d;" parent="1" vertex="1">
          <mxGeometry x="895" y="5" width="30" height="30" as="geometry" />
        </mxCell>
        <mxCell id="collsionpoint-66" value="" style="ellipse;whiteSpace=wrap;html=1;aspect=fixed;fontSize=20;fillColor=#eeeeee;strokeColor=#36393d;" parent="1" vertex="1">
          <mxGeometry x="55" y="25" width="30" height="30" as="geometry" />
        </mxCell>
        <mxCell id="collsionpoint-67" value="" style="ellipse;whiteSpace=wrap;html=1;aspect=fixed;fontSize=20;fillColor=#eeeeee;strokeColor=#36393d;" parent="1" vertex="1">
          <mxGeometry x="595" y="25" width="30" height="30" as="geometry" />
        </mxCell>
        <mxCell id="collsionpoint-68" value="" style="ellipse;whiteSpace=wrap;html=1;aspect=fixed;fontSize=20;fillColor=#eeeeee;strokeColor=#36393d;" parent="1" vertex="1">
          <mxGeometry x="785" y="25" width="30" height="30" as="geometry" />
        </mxCell>
        <mxCell id="collsionpoint-69" value="" style="ellipse;whiteSpace=wrap;html=1;aspect=fixed;fontSize=20;fillColor=#eeeeee;strokeColor=#36393d;" parent="1" vertex="1">
          <mxGeometry x="805" y="25" width="30" height="30" as="geometry" />
        </mxCell>
        <mxCell id="collsionpoint-70" value="" style="ellipse;whiteSpace=wrap;html=1;aspect=fixed;fontSize=20;fillColor=#eeeeee;strokeColor=#36393d;" parent="1" vertex="1">
          <mxGeometry x="895" y="25" width="30" height="30" as="geometry" />
        </mxCell>
        <mxCell id="collsionpoint-71" value="" style="ellipse;whiteSpace=wrap;html=1;aspect=fixed;fontSize=20;fillColor=#eeeeee;strokeColor=#36393d;" parent="1" vertex="1">
          <mxGeometry x="55" y="45" width="30" height="30" as="geometry" />
        </mxCell>
        <mxCell id="collsionpoint-72" value="" style="ellipse;whiteSpace=wrap;html=1;aspect=fixed;fontSize=20;fillColor=#eeeeee;strokeColor=#36393d;" parent="1" vertex="1">
          <mxGeometry x="595" y="45" width="30" height="30" as="geometry" />
        </mxCell>
        <mxCell id="collsionpoint-73" value="" style="ellipse;whiteSpace=wrap;html=1;aspect=fixed;fontSize=20;fillColor=#eeeeee;strokeColor=#36393d;" parent="1" vertex="1">
          <mxGeometry x="785" y="45" width="30" height="30" as="geometry" />
        </mxCell>
        <mxCell id="collsionpoint-74" value="" style="ellipse;whiteSpace=wrap;html=1;aspect=fixed;fontSize=20;fillColor=#eeeeee;strokeColor=#36393d;" parent="1" vertex="1">
          <mxGeometry x="805" y="45" width="30" height="30" as="geometry" />
        </mxCell>
        <mxCell id="collsionpoint-75" value="" style="ellipse;whiteSpace=wrap;html=1;aspect=fixed;fontSize=20;fillColor=#eeeeee;strokeColor=#36393d;" parent="1" vertex="1">
          <mxGeometry x="895" y="45" width="30" height="30" as="geometry" />
        </mxCell>
        <mxCell id="collsionpoint-76" value="" style="ellipse;whiteSpace=wrap;html=1;aspect=fixed;fontSize=20;fillColor=#eeeeee;strokeColor=#36393d;" parent="1" vertex="1">
          <mxGeometry x="55" y="65" width="30" height="30" as="geometry" />
        </mxCell>
        <mxCell id="collsionpoint-77" value="" style="ellipse;whiteSpace=wrap;html=1;aspect=fixed;fontSize=20;fillColor=#eeeeee;strokeColor=#36393d;" parent="1" vertex="1">
          <mxGeometry x="155" y="65" width="30" height="30" as="geometry" />
        </mxCell>
        <mxCell id="collsionpoint-78" value="" style="ellipse;whiteSpace=wrap;html=1;aspect=fixed;fontSize=20;fillColor=#eeeeee;strokeColor=#36393d;" parent="1" vertex="1">
          <mxGeometry x="175" y="65" width="30" height="30" as="geometry" />
        </mxCell>
        <mxCell id="collsionpoint-79" value="" style="ellipse;whiteSpace=wrap;html=1;aspect=fixed;fontSize=20;fillColor=#eeeeee;strokeColor=#36393d;" parent="1" vertex="1">
          <mxGeometry x="195" y="65" width="30" height="30" as="geometry" />
        </mxCell>
        <mxCell id="collsionpoint-80" value="" style="ellipse;whiteSpace=wrap;html=1;aspect=fixed;fontSize=20;fillColor=#eeeeee;strokeColor=#36393d;" parent="1" vertex="1">
          <mxGeometry x="215" y="65" width="30" height="30" as="geometry" />
        </mxCell>
        <mxCell id="collsionpoint-81" value="" style="ellipse;whiteSpace=wrap;html=1;aspect=fixed;fontSize=20;fillColor=#eeeeee;strokeColor=#36393d;" parent="1" vertex="1">
          <mxGeometry x="235" y="65" width="30" height="30" as="geometry" />
        </mxCell>
        <mxCell id="collsionpoint-82" value="" style="ellipse;whiteSpace=wrap;html=1;aspect=fixed;fontSize=20;fillColor=#eeeeee;strokeColor=#36393d;" parent="1" vertex="1">
          <mxGeometry x="255" y="65" width="30" height="30" as="geometry" />
        </mxCell>
        <mxCell id="collsionpoint-83" value="" style="ellipse;whiteSpace=wrap;html=1;aspect=fixed;fontSize=20;fillColor=#eeeeee;strokeColor=#36393d;" parent="1" vertex="1">
          <mxGeometry x="275" y="65" width="30" height="30" as="geometry" />
        </mxCell>
        <mxCell id="collsionpoint-84" value="" style="ellipse;whiteSpace=wrap;html=1;aspect=fixed;fontSize=20;fillColor=#eeeeee;strokeColor=#36393d;" parent="1" vertex="1">
          <mxGeometry x="295" y="65" width="30" height="30" as="geometry" />
        </mxCell>
        <mxCell id="collsionpoint-85" value="" style="ellipse;whiteSpace=wrap;html=1;aspect=fixed;fontSize=20;fillColor=#eeeeee;strokeColor=#36393d;" parent="1" vertex="1">
          <mxGeometry x="315" y="65" width="30" height="30" as="geometry" />
        </mxCell>
        <mxCell id="collsionpoint-86" value="" style="ellipse;whiteSpace=wrap;html=1;aspect=fixed;fontSize=20;fillColor=#eeeeee;strokeColor=#36393d;" parent="1" vertex="1">
          <mxGeometry x="335" y="65" width="30" height="30" as="geometry" />
        </mxCell>
        <mxCell id="collsionpoint-87" value="" style="ellipse;whiteSpace=wrap;html=1;aspect=fixed;fontSize=20;fillColor=#eeeeee;strokeColor=#36393d;" parent="1" vertex="1">
          <mxGeometry x="355" y="65" width="30" height="30" as="geometry" />
        </mxCell>
        <mxCell id="collsionpoint-88" value="" style="ellipse;whiteSpace=wrap;html=1;aspect=fixed;fontSize=20;fillColor=#eeeeee;strokeColor=#36393d;" parent="1" vertex="1">
          <mxGeometry x="375" y="65" width="30" height="30" as="geometry" />
        </mxCell>
        <mxCell id="collsionpoint-89" value="" style="ellipse;whiteSpace=wrap;html=1;aspect=fixed;fontSize=20;fillColor=#eeeeee;strokeColor=#36393d;" parent="1" vertex="1">
          <mxGeometry x="395" y="65" width="30" height="30" as="geometry" />
        </mxCell>
        <mxCell id="collsionpoint-90" value="" style="ellipse;whiteSpace=wrap;html=1;aspect=fixed;fontSize=20;fillColor=#eeeeee;strokeColor=#36393d;" parent="1" vertex="1">
          <mxGeometry x="415" y="65" width="30" height="30" as="geometry" />
        </mxCell>
        <mxCell id="collsionpoint-91" value="" style="ellipse;whiteSpace=wrap;html=1;aspect=fixed;fontSize=20;fillColor=#eeeeee;strokeColor=#36393d;" parent="1" vertex="1">
          <mxGeometry x="435" y="65" width="30" height="30" as="geometry" />
        </mxCell>
        <mxCell id="collsionpoint-92" value="" style="ellipse;whiteSpace=wrap;html=1;aspect=fixed;fontSize=20;fillColor=#eeeeee;strokeColor=#36393d;" parent="1" vertex="1">
          <mxGeometry x="455" y="65" width="30" height="30" as="geometry" />
        </mxCell>
        <mxCell id="collsionpoint-93" value="" style="ellipse;whiteSpace=wrap;html=1;aspect=fixed;fontSize=20;fillColor=#eeeeee;strokeColor=#36393d;" parent="1" vertex="1">
          <mxGeometry x="475" y="65" width="30" height="30" as="geometry" />
        </mxCell>
        <mxCell id="collsionpoint-94" value="" style="ellipse;whiteSpace=wrap;html=1;aspect=fixed;fontSize=20;fillColor=#eeeeee;strokeColor=#36393d;" parent="1" vertex="1">
          <mxGeometry x="675" y="65" width="30" height="30" as="geometry" />
        </mxCell>
        <mxCell id="collsionpoint-95" value="" style="ellipse;whiteSpace=wrap;html=1;aspect=fixed;fontSize=20;fillColor=#eeeeee;strokeColor=#36393d;" parent="1" vertex="1">
          <mxGeometry x="695" y="65" width="30" height="30" as="geometry" />
        </mxCell>
        <mxCell id="collsionpoint-96" value="" style="ellipse;whiteSpace=wrap;html=1;aspect=fixed;fontSize=20;fillColor=#eeeeee;strokeColor=#36393d;" parent="1" vertex="1">
          <mxGeometry x="785" y="65" width="30" height="30" as="geometry" />
        </mxCell>
        <mxCell id="collsionpoint-97" value="" style="ellipse;whiteSpace=wrap;html=1;aspect=fixed;fontSize=20;fillColor=#eeeeee;strokeColor=#36393d;" parent="1" vertex="1">
          <mxGeometry x="805" y="65" width="30" height="30" as="geometry" />
        </mxCell>
        <mxCell id="collsionpoint-98" value="" style="ellipse;whiteSpace=wrap;html=1;aspect=fixed;fontSize=20;fillColor=#eeeeee;strokeColor=#36393d;" parent="1" vertex="1">
          <mxGeometry x="895" y="65" width="30" height="30" as="geometry" />
        </mxCell>
        <mxCell id="collsionpoint-99" value="" style="ellipse;whiteSpace=wrap;html=1;aspect=fixed;fontSize=20;fillColor=#eeeeee;strokeColor=#36393d;" parent="1" vertex="1">
          <mxGeometry x="975" y="65" width="30" height="30" as="geometry" />
        </mxCell>
        <mxCell id="collsionpoint-100" value="" style="ellipse;whiteSpace=wrap;html=1;aspect=fixed;fontSize=20;fillColor=#eeeeee;strokeColor=#36393d;" parent="1" vertex="1">
          <mxGeometry x="995" y="65" width="30" height="30" as="geometry" />
        </mxCell>
        <mxCell id="collsionpoint-101" value="" style="ellipse;whiteSpace=wrap;html=1;aspect=fixed;fontSize=20;fillColor=#eeeeee;strokeColor=#36393d;" parent="1" vertex="1">
          <mxGeometry x="1015" y="65" width="30" height="30" as="geometry" />
        </mxCell>
        <mxCell id="collsionpoint-102" value="" style="ellipse;whiteSpace=wrap;html=1;aspect=fixed;fontSize=20;fillColor=#eeeeee;strokeColor=#36393d;" parent="1" vertex="1">
          <mxGeometry x="1035" y="65" width="30" height="30" as="geometry" />
        </mxCell>
        <mxCell id="collsionpoint-103" value="" style="ellipse;whiteSpace=wrap;html=1;aspect=fixed;fontSize=20;fillColor=#eeeeee;strokeColor=#36393d;" parent="1" vertex="1">
          <mxGeometry x="1055" y="65" width="30" height="30" as="geometry" />
        </mxCell>
        <mxCell id="collsionpoint-104" value="" style="ellipse;whiteSpace=wrap;html=1;aspect=fixed;fontSize=20;fillColor=#eeeeee;strokeColor=#36393d;" parent="1" vertex="1">
          <mxGeometry x="1075" y="65" width="30" height="30" as="geometry" />
        </mxCell>
        <mxCell id="collsionpoint-105" value="" style="ellipse;whiteSpace=wrap;html=1;aspect=fixed;fontSize=20;fillColor=#eeeeee;strokeColor=#36393d;" parent="1" vertex="1">
          <mxGeometry x="1095" y="65" width="30" height="30" as="geometry" />
        </mxCell>
        <mxCell id="collsionpoint-106" value="" style="ellipse;whiteSpace=wrap;html=1;aspect=fixed;fontSize=20;fillColor=#eeeeee;strokeColor=#36393d;" parent="1" vertex="1">
          <mxGeometry x="1115" y="65" width="30" height="30" as="geometry" />
        </mxCell>
        <mxCell id="collsionpoint-107" value="" style="ellipse;whiteSpace=wrap;html=1;aspect=fixed;fontSize=20;fillColor=#eeeeee;strokeColor=#36393d;" parent="1" vertex="1">
          <mxGeometry x="1135" y="65" width="30" height="30" as="geometry" />
        </mxCell>
        <mxCell id="collsionpoint-108" value="" style="ellipse;whiteSpace=wrap;html=1;aspect=fixed;fontSize=20;fillColor=#eeeeee;strokeColor=#36393d;" parent="1" vertex="1">
          <mxGeometry x="1155" y="65" width="30" height="30" as="geometry" />
        </mxCell>
        <mxCell id="collsionpoint-109" value="" style="ellipse;whiteSpace=wrap;html=1;aspect=fixed;fontSize=20;fillColor=#eeeeee;strokeColor=#36393d;" parent="1" vertex="1">
          <mxGeometry x="55" y="85" width="30" height="30" as="geometry" />
        </mxCell>
        <mxCell id="collsionpoint-110" value="" style="ellipse;whiteSpace=wrap;html=1;aspect=fixed;fontSize=20;fillColor=#eeeeee;strokeColor=#36393d;" parent="1" vertex="1">
          <mxGeometry x="315" y="85" width="30" height="30" as="geometry" />
        </mxCell>
        <mxCell id="collsionpoint-111" value="" style="ellipse;whiteSpace=wrap;html=1;aspect=fixed;fontSize=20;fillColor=#eeeeee;strokeColor=#36393d;" parent="1" vertex="1">
          <mxGeometry x="675" y="85" width="30" height="30" as="geometry" />
        </mxCell>
        <mxCell id="collsionpoint-112" value="" style="ellipse;whiteSpace=wrap;html=1;aspect=fixed;fontSize=20;fillColor=#eeeeee;strokeColor=#36393d;" parent="1" vertex="1">
          <mxGeometry x="695" y="85" width="30" height="30" as="geometry" />
        </mxCell>
        <mxCell id="collsionpoint-113" value="" style="ellipse;whiteSpace=wrap;html=1;aspect=fixed;fontSize=20;fillColor=#eeeeee;strokeColor=#36393d;" parent="1" vertex="1">
          <mxGeometry x="895" y="85" width="30" height="30" as="geometry" />
        </mxCell>
        <mxCell id="collsionpoint-114" value="" style="ellipse;whiteSpace=wrap;html=1;aspect=fixed;fontSize=20;fillColor=#eeeeee;strokeColor=#36393d;" parent="1" vertex="1">
          <mxGeometry x="1035" y="85" width="30" height="30" as="geometry" />
        </mxCell>
        <mxCell id="collsionpoint-115" value="" style="ellipse;whiteSpace=wrap;html=1;aspect=fixed;fontSize=20;fillColor=#eeeeee;strokeColor=#36393d;" parent="1" vertex="1">
          <mxGeometry x="1075" y="85" width="30" height="30" as="geometry" />
        </mxCell>
        <mxCell id="collsionpoint-116" value="" style="ellipse;whiteSpace=wrap;html=1;aspect=fixed;fontSize=20;fillColor=#eeeeee;strokeColor=#36393d;" parent="1" vertex="1">
          <mxGeometry x="55" y="105" width="30" height="30" as="geometry" />
        </mxCell>
        <mxCell id="collsionpoint-117" value="" style="ellipse;whiteSpace=wrap;html=1;aspect=fixed;fontSize=20;fillColor=#eeeeee;strokeColor=#36393d;" parent="1" vertex="1">
          <mxGeometry x="315" y="105" width="30" height="30" as="geometry" />
        </mxCell>
        <mxCell id="collsionpoint-118" value="" style="ellipse;whiteSpace=wrap;html=1;aspect=fixed;fontSize=20;fillColor=#eeeeee;strokeColor=#36393d;" parent="1" vertex="1">
          <mxGeometry x="675" y="105" width="30" height="30" as="geometry" />
        </mxCell>
        <mxCell id="collsionpoint-119" value="" style="ellipse;whiteSpace=wrap;html=1;aspect=fixed;fontSize=20;fillColor=#eeeeee;strokeColor=#36393d;" parent="1" vertex="1">
          <mxGeometry x="695" y="105" width="30" height="30" as="geometry" />
        </mxCell>
        <mxCell id="collsionpoint-120" value="" style="ellipse;whiteSpace=wrap;html=1;aspect=fixed;fontSize=20;fillColor=#eeeeee;strokeColor=#36393d;" parent="1" vertex="1">
          <mxGeometry x="895" y="105" width="30" height="30" as="geometry" />
        </mxCell>
        <mxCell id="collsionpoint-121" value="" style="ellipse;whiteSpace=wrap;html=1;aspect=fixed;fontSize=20;fillColor=#eeeeee;strokeColor=#36393d;" parent="1" vertex="1">
          <mxGeometry x="1035" y="105" width="30" height="30" as="geometry" />
        </mxCell>
        <mxCell id="collsionpoint-122" value="" style="ellipse;whiteSpace=wrap;html=1;aspect=fixed;fontSize=20;fillColor=#eeeeee;strokeColor=#36393d;" parent="1" vertex="1">
          <mxGeometry x="1075" y="105" width="30" height="30" as="geometry" />
        </mxCell>
        <mxCell id="collsionpoint-123" value="" style="ellipse;whiteSpace=wrap;html=1;aspect=fixed;fontSize=20;fillColor=#eeeeee;strokeColor=#36393d;" parent="1" vertex="1">
          <mxGeometry x="55" y="125" width="30" height="30" as="geometry" />
        </mxCell>
        <mxCell id="collsionpoint-124" value="" style="ellipse;whiteSpace=wrap;html=1;aspect=fixed;fontSize=20;fillColor=#eeeeee;strokeColor=#36393d;" parent="1" vertex="1">
          <mxGeometry x="315" y="125" width="30" height="30" as="geometry" />
        </mxCell>
        <mxCell id="collsionpoint-125" value="" style="ellipse;whiteSpace=wrap;html=1;aspect=fixed;fontSize=20;fillColor=#eeeeee;strokeColor=#36393d;" parent="1" vertex="1">
          <mxGeometry x="675" y="125" width="30" height="30" as="geometry" />
        </mxCell>
        <mxCell id="collsionpoint-126" value="" style="ellipse;whiteSpace=wrap;html=1;aspect=fixed;fontSize=20;fillColor=#eeeeee;strokeColor=#36393d;" parent="1" vertex="1">
          <mxGeometry x="695" y="125" width="30" height="30" as="geometry" />
        </mxCell>
        <mxCell id="collsionpoint-127" value="" style="ellipse;whiteSpace=wrap;html=1;aspect=fixed;fontSize=20;fillColor=#eeeeee;strokeColor=#36393d;" parent="1" vertex="1">
          <mxGeometry x="895" y="125" width="30" height="30" as="geometry" />
        </mxCell>
        <mxCell id="collsionpoint-128" value="" style="ellipse;whiteSpace=wrap;html=1;aspect=fixed;fontSize=20;fillColor=#eeeeee;strokeColor=#36393d;" parent="1" vertex="1">
          <mxGeometry x="995" y="125" width="30" height="30" as="geometry" />
        </mxCell>
        <mxCell id="collsionpoint-129" value="" style="ellipse;whiteSpace=wrap;html=1;aspect=fixed;fontSize=20;fillColor=#eeeeee;strokeColor=#36393d;" parent="1" vertex="1">
          <mxGeometry x="1035" y="125" width="30" height="30" as="geometry" />
        </mxCell>
        <mxCell id="collsionpoint-130" value="" style="ellipse;whiteSpace=wrap;html=1;aspect=fixed;fontSize=20;fillColor=#eeeeee;strokeColor=#36393d;" parent="1" vertex="1">
          <mxGeometry x="55" y="145" width="30" height="30" as="geometry" />
        </mxCell>
        <mxCell id="collsionpoint-131" value="" style="ellipse;whiteSpace=wrap;html=1;aspect=fixed;fontSize=20;fillColor=#eeeeee;strokeColor=#36393d;" parent="1" vertex="1">
          <mxGeometry x="75" y="145" width="30" height="30" as="geometry" />
        </mxCell>
        <mxCell id="collsionpoint-132" value="" style="ellipse;whiteSpace=wrap;html=1;aspect=fixed;fontSize=20;fillColor=#eeeeee;strokeColor=#36393d;" parent="1" vertex="1">
          <mxGeometry x="95" y="145" width="30" height="30" as="geometry" />
        </mxCell>
        <mxCell id="collsionpoint-133" value="" style="ellipse;whiteSpace=wrap;html=1;aspect=fixed;fontSize=20;fillColor=#eeeeee;strokeColor=#36393d;" parent="1" vertex="1">
          <mxGeometry x="115" y="145" width="30" height="30" as="geometry" />
        </mxCell>
        <mxCell id="collsionpoint-134" value="" style="ellipse;whiteSpace=wrap;html=1;aspect=fixed;fontSize=20;fillColor=#eeeeee;strokeColor=#36393d;" parent="1" vertex="1">
          <mxGeometry x="135" y="145" width="30" height="30" as="geometry" />
        </mxCell>
        <mxCell id="collsionpoint-135" value="" style="ellipse;whiteSpace=wrap;html=1;aspect=fixed;fontSize=20;fillColor=#eeeeee;strokeColor=#36393d;" parent="1" vertex="1">
          <mxGeometry x="155" y="145" width="30" height="30" as="geometry" />
        </mxCell>
        <mxCell id="collsionpoint-136" value="" style="ellipse;whiteSpace=wrap;html=1;aspect=fixed;fontSize=20;fillColor=#eeeeee;strokeColor=#36393d;" parent="1" vertex="1">
          <mxGeometry x="175" y="145" width="30" height="30" as="geometry" />
        </mxCell>
        <mxCell id="collsionpoint-137" value="" style="ellipse;whiteSpace=wrap;html=1;aspect=fixed;fontSize=20;fillColor=#eeeeee;strokeColor=#36393d;" parent="1" vertex="1">
          <mxGeometry x="195" y="145" width="30" height="30" as="geometry" />
        </mxCell>
        <mxCell id="collsionpoint-138" value="" style="ellipse;whiteSpace=wrap;html=1;aspect=fixed;fontSize=20;fillColor=#eeeeee;strokeColor=#36393d;" parent="1" vertex="1">
          <mxGeometry x="215" y="145" width="30" height="30" as="geometry" />
        </mxCell>
        <mxCell id="collsionpoint-139" value="" style="ellipse;whiteSpace=wrap;html=1;aspect=fixed;fontSize=20;fillColor=#eeeeee;strokeColor=#36393d;" parent="1" vertex="1">
          <mxGeometry x="315" y="145" width="30" height="30" as="geometry" />
        </mxCell>
        <mxCell id="collsionpoint-140" value="" style="ellipse;whiteSpace=wrap;html=1;aspect=fixed;fontSize=20;fillColor=#eeeeee;strokeColor=#36393d;" parent="1" vertex="1">
          <mxGeometry x="675" y="145" width="30" height="30" as="geometry" />
        </mxCell>
        <mxCell id="collsionpoint-141" value="" style="ellipse;whiteSpace=wrap;html=1;aspect=fixed;fontSize=20;fillColor=#eeeeee;strokeColor=#36393d;" parent="1" vertex="1">
          <mxGeometry x="695" y="145" width="30" height="30" as="geometry" />
        </mxCell>
        <mxCell id="collsionpoint-142" value="" style="ellipse;whiteSpace=wrap;html=1;aspect=fixed;fontSize=20;fillColor=#eeeeee;strokeColor=#36393d;" parent="1" vertex="1">
          <mxGeometry x="785" y="145" width="30" height="30" as="geometry" />
        </mxCell>
        <mxCell id="collsionpoint-143" value="" style="ellipse;whiteSpace=wrap;html=1;aspect=fixed;fontSize=20;fillColor=#eeeeee;strokeColor=#36393d;" parent="1" vertex="1">
          <mxGeometry x="805" y="145" width="30" height="30" as="geometry" />
        </mxCell>
        <mxCell id="collsionpoint-144" value="" style="ellipse;whiteSpace=wrap;html=1;aspect=fixed;fontSize=20;fillColor=#eeeeee;strokeColor=#36393d;" parent="1" vertex="1">
          <mxGeometry x="995" y="145" width="30" height="30" as="geometry" />
        </mxCell>
        <mxCell id="collsionpoint-145" value="" style="ellipse;whiteSpace=wrap;html=1;aspect=fixed;fontSize=20;fillColor=#eeeeee;strokeColor=#36393d;" parent="1" vertex="1">
          <mxGeometry x="1035" y="145" width="30" height="30" as="geometry" />
        </mxCell>
        <mxCell id="collsionpoint-146" value="" style="ellipse;whiteSpace=wrap;html=1;aspect=fixed;fontSize=20;fillColor=#eeeeee;strokeColor=#36393d;" parent="1" vertex="1">
          <mxGeometry x="315" y="165" width="30" height="30" as="geometry" />
        </mxCell>
        <mxCell id="collsionpoint-147" value="" style="ellipse;whiteSpace=wrap;html=1;aspect=fixed;fontSize=20;fillColor=#eeeeee;strokeColor=#36393d;" parent="1" vertex="1">
          <mxGeometry x="595" y="165" width="30" height="30" as="geometry" />
        </mxCell>
        <mxCell id="collsionpoint-148" value="" style="ellipse;whiteSpace=wrap;html=1;aspect=fixed;fontSize=20;fillColor=#eeeeee;strokeColor=#36393d;" parent="1" vertex="1">
          <mxGeometry x="785" y="165" width="30" height="30" as="geometry" />
        </mxCell>
        <mxCell id="collsionpoint-149" value="" style="ellipse;whiteSpace=wrap;html=1;aspect=fixed;fontSize=20;fillColor=#eeeeee;strokeColor=#36393d;" parent="1" vertex="1">
          <mxGeometry x="805" y="165" width="30" height="30" as="geometry" />
        </mxCell>
        <mxCell id="collsionpoint-150" value="" style="ellipse;whiteSpace=wrap;html=1;aspect=fixed;fontSize=20;fillColor=#eeeeee;strokeColor=#36393d;" parent="1" vertex="1">
          <mxGeometry x="995" y="165" width="30" height="30" as="geometry" />
        </mxCell>
        <mxCell id="collsionpoint-151" value="" style="ellipse;whiteSpace=wrap;html=1;aspect=fixed;fontSize=20;fillColor=#eeeeee;strokeColor=#36393d;" parent="1" vertex="1">
          <mxGeometry x="315" y="185" width="30" height="30" as="geometry" />
        </mxCell>
        <mxCell id="collsionpoint-152" value="" style="ellipse;whiteSpace=wrap;html=1;aspect=fixed;fontSize=20;fillColor=#eeeeee;strokeColor=#36393d;" parent="1" vertex="1">
          <mxGeometry x="595" y="185" width="30" height="30" as="geometry" />
        </mxCell>
        <mxCell id="collsionpoint-153" value="" style="ellipse;whiteSpace=wrap;html=1;aspect=fixed;fontSize=20;fillColor=#eeeeee;strokeColor=#36393d;" parent="1" vertex="1">
          <mxGeometry x="785" y="185" width="30" height="30" as="geometry" />
        </mxCell>
        <mxCell id="collsionpoint-154" value="" style="ellipse;whiteSpace=wrap;html=1;aspect=fixed;fontSize=20;fillColor=#eeeeee;strokeColor=#36393d;" parent="1" vertex="1">
          <mxGeometry x="805" y="185" width="30" height="30" as="geometry" />
        </mxCell>
        <mxCell id="collsionpoint-155" value="" style="ellipse;whiteSpace=wrap;html=1;aspect=fixed;fontSize=20;fillColor=#eeeeee;strokeColor=#36393d;" parent="1" vertex="1">
          <mxGeometry x="995" y="185" width="30" height="30" as="geometry" />
        </mxCell>
        <mxCell id="collsionpoint-156" value="" style="ellipse;whiteSpace=wrap;html=1;aspect=fixed;fontSize=20;fillColor=#eeeeee;strokeColor=#36393d;" parent="1" vertex="1">
          <mxGeometry x="315" y="205" width="30" height="30" as="geometry" />
        </mxCell>
        <mxCell id="collsionpoint-157" value="" style="ellipse;whiteSpace=wrap;html=1;aspect=fixed;fontSize=20;fillColor=#eeeeee;strokeColor=#36393d;" parent="1" vertex="1">
          <mxGeometry x="595" y="205" width="30" height="30" as="geometry" />
        </mxCell>
        <mxCell id="collsionpoint-158" value="" style="ellipse;whiteSpace=wrap;html=1;aspect=fixed;fontSize=20;fillColor=#eeeeee;strokeColor=#36393d;" parent="1" vertex="1">
          <mxGeometry x="-5" y="225" width="30" height="30" as="geometry" />
        </mxCell>
        <mxCell id="collsionpoint-159" value="" style="ellipse;whiteSpace=wrap;html=1;aspect=fixed;fontSize=20;fillColor=#eeeeee;strokeColor=#36393d;" parent="1" vertex="1">
          <mxGeometry x="15" y="225" width="30" height="30" as="geometry" />
        </mxCell>
        <mxCell id="collsionpoint-160" value="" style="ellipse;whiteSpace=wrap;html=1;aspect=fixed;fontSize=20;fillColor=#eeeeee;strokeColor=#36393d;" parent="1" vertex="1">
          <mxGeometry x="35" y="225" width="30" height="30" as="geometry" />
        </mxCell>
        <mxCell id="collsionpoint-161" value="" style="ellipse;whiteSpace=wrap;html=1;aspect=fixed;fontSize=20;fillColor=#eeeeee;strokeColor=#36393d;" parent="1" vertex="1">
          <mxGeometry x="55" y="225" width="30" height="30" as="geometry" />
        </mxCell>
        <mxCell id="collsionpoint-162" value="" style="ellipse;whiteSpace=wrap;html=1;aspect=fixed;fontSize=20;fillColor=#eeeeee;strokeColor=#36393d;" parent="1" vertex="1">
          <mxGeometry x="75" y="225" width="30" height="30" as="geometry" />
        </mxCell>
        <mxCell id="collsionpoint-163" value="" style="ellipse;whiteSpace=wrap;html=1;aspect=fixed;fontSize=20;fillColor=#eeeeee;strokeColor=#36393d;" parent="1" vertex="1">
          <mxGeometry x="95" y="225" width="30" height="30" as="geometry" />
        </mxCell>
        <mxCell id="collsionpoint-164" value="" style="ellipse;whiteSpace=wrap;html=1;aspect=fixed;fontSize=20;fillColor=#eeeeee;strokeColor=#36393d;" parent="1" vertex="1">
          <mxGeometry x="115" y="225" width="30" height="30" as="geometry" />
        </mxCell>
        <mxCell id="collsionpoint-165" value="" style="ellipse;whiteSpace=wrap;html=1;aspect=fixed;fontSize=20;fillColor=#eeeeee;strokeColor=#36393d;" parent="1" vertex="1">
          <mxGeometry x="135" y="225" width="30" height="30" as="geometry" />
        </mxCell>
        <mxCell id="collsionpoint-166" value="" style="ellipse;whiteSpace=wrap;html=1;aspect=fixed;fontSize=20;fillColor=#eeeeee;strokeColor=#36393d;" parent="1" vertex="1">
          <mxGeometry x="155" y="225" width="30" height="30" as="geometry" />
        </mxCell>
        <mxCell id="collsionpoint-167" value="" style="ellipse;whiteSpace=wrap;html=1;aspect=fixed;fontSize=20;fillColor=#eeeeee;strokeColor=#36393d;" parent="1" vertex="1">
          <mxGeometry x="175" y="225" width="30" height="30" as="geometry" />
        </mxCell>
        <mxCell id="collsionpoint-168" value="" style="ellipse;whiteSpace=wrap;html=1;aspect=fixed;fontSize=20;fillColor=#eeeeee;strokeColor=#36393d;" parent="1" vertex="1">
          <mxGeometry x="195" y="225" width="30" height="30" as="geometry" />
        </mxCell>
        <mxCell id="collsionpoint-169" value="" style="ellipse;whiteSpace=wrap;html=1;aspect=fixed;fontSize=20;fillColor=#eeeeee;strokeColor=#36393d;" parent="1" vertex="1">
          <mxGeometry x="215" y="225" width="30" height="30" as="geometry" />
        </mxCell>
        <mxCell id="collsionpoint-170" value="" style="ellipse;whiteSpace=wrap;html=1;aspect=fixed;fontSize=20;fillColor=#eeeeee;strokeColor=#36393d;" parent="1" vertex="1">
          <mxGeometry x="235" y="225" width="30" height="30" as="geometry" />
        </mxCell>
        <mxCell id="collsionpoint-171" value="" style="ellipse;whiteSpace=wrap;html=1;aspect=fixed;fontSize=20;fillColor=#eeeeee;strokeColor=#36393d;" parent="1" vertex="1">
          <mxGeometry x="255" y="225" width="30" height="30" as="geometry" />
        </mxCell>
        <mxCell id="collsionpoint-172" value="" style="ellipse;whiteSpace=wrap;html=1;aspect=fixed;fontSize=20;fillColor=#eeeeee;strokeColor=#36393d;" parent="1" vertex="1">
          <mxGeometry x="275" y="225" width="30" height="30" as="geometry" />
        </mxCell>
        <mxCell id="collsionpoint-173" value="" style="ellipse;whiteSpace=wrap;html=1;aspect=fixed;fontSize=20;fillColor=#eeeeee;strokeColor=#36393d;" parent="1" vertex="1">
          <mxGeometry x="295" y="225" width="30" height="30" as="geometry" />
        </mxCell>
        <mxCell id="collsionpoint-174" value="" style="ellipse;whiteSpace=wrap;html=1;aspect=fixed;fontSize=20;fillColor=#eeeeee;strokeColor=#36393d;" parent="1" vertex="1">
          <mxGeometry x="315" y="225" width="30" height="30" as="geometry" />
        </mxCell>
        <mxCell id="collsionpoint-175" value="" style="ellipse;whiteSpace=wrap;html=1;aspect=fixed;fontSize=20;fillColor=#eeeeee;strokeColor=#36393d;" parent="1" vertex="1">
          <mxGeometry x="335" y="225" width="30" height="30" as="geometry" />
        </mxCell>
        <mxCell id="collsionpoint-176" value="" style="ellipse;whiteSpace=wrap;html=1;aspect=fixed;fontSize=20;fillColor=#eeeeee;strokeColor=#36393d;" parent="1" vertex="1">
          <mxGeometry x="355" y="225" width="30" height="30" as="geometry" />
        </mxCell>
        <mxCell id="collsionpoint-177" value="" style="ellipse;whiteSpace=wrap;html=1;aspect=fixed;fontSize=20;fillColor=#eeeeee;strokeColor=#36393d;" parent="1" vertex="1">
          <mxGeometry x="375" y="225" width="30" height="30" as="geometry" />
        </mxCell>
        <mxCell id="collsionpoint-178" value="" style="ellipse;whiteSpace=wrap;html=1;aspect=fixed;fontSize=20;fillColor=#eeeeee;strokeColor=#36393d;" parent="1" vertex="1">
          <mxGeometry x="395" y="225" width="30" height="30" as="geometry" />
        </mxCell>
        <mxCell id="collsionpoint-179" value="" style="ellipse;whiteSpace=wrap;html=1;aspect=fixed;fontSize=20;fillColor=#eeeeee;strokeColor=#36393d;" parent="1" vertex="1">
          <mxGeometry x="415" y="225" width="30" height="30" as="geometry" />
        </mxCell>
        <mxCell id="collsionpoint-180" value="" style="ellipse;whiteSpace=wrap;html=1;aspect=fixed;fontSize=20;fillColor=#eeeeee;strokeColor=#36393d;" parent="1" vertex="1">
          <mxGeometry x="435" y="225" width="30" height="30" as="geometry" />
        </mxCell>
        <mxCell id="collsionpoint-181" value="" style="ellipse;whiteSpace=wrap;html=1;aspect=fixed;fontSize=20;fillColor=#eeeeee;strokeColor=#36393d;" parent="1" vertex="1">
          <mxGeometry x="455" y="225" width="30" height="30" as="geometry" />
        </mxCell>
        <mxCell id="collsionpoint-182" value="" style="ellipse;whiteSpace=wrap;html=1;aspect=fixed;fontSize=20;fillColor=#eeeeee;strokeColor=#36393d;" parent="1" vertex="1">
          <mxGeometry x="475" y="225" width="30" height="30" as="geometry" />
        </mxCell>
        <mxCell id="collsionpoint-183" value="" style="ellipse;whiteSpace=wrap;html=1;aspect=fixed;fontSize=20;fillColor=#eeeeee;strokeColor=#36393d;" parent="1" vertex="1">
          <mxGeometry x="495" y="225" width="30" height="30" as="geometry" />
        </mxCell>
        <mxCell id="collsionpoint-184" value="" style="ellipse;whiteSpace=wrap;html=1;aspect=fixed;fontSize=20;fillColor=#eeeeee;strokeColor=#36393d;" parent="1" vertex="1">
          <mxGeometry x="515" y="225" width="30" height="30" as="geometry" />
        </mxCell>
        <mxCell id="collsionpoint-185" value="" style="ellipse;whiteSpace=wrap;html=1;aspect=fixed;fontSize=20;fillColor=#eeeeee;strokeColor=#36393d;" parent="1" vertex="1">
          <mxGeometry x="535" y="225" width="30" height="30" as="geometry" />
        </mxCell>
        <mxCell id="collsionpoint-186" value="" style="ellipse;whiteSpace=wrap;html=1;aspect=fixed;fontSize=20;fillColor=#eeeeee;strokeColor=#36393d;" parent="1" vertex="1">
          <mxGeometry x="555" y="225" width="30" height="30" as="geometry" />
        </mxCell>
        <mxCell id="collsionpoint-187" value="" style="ellipse;whiteSpace=wrap;html=1;aspect=fixed;fontSize=20;fillColor=#eeeeee;strokeColor=#36393d;" parent="1" vertex="1">
          <mxGeometry x="575" y="225" width="30" height="30" as="geometry" />
        </mxCell>
        <mxCell id="collsionpoint-188" value="" style="ellipse;whiteSpace=wrap;html=1;aspect=fixed;fontSize=20;fillColor=#eeeeee;strokeColor=#36393d;" parent="1" vertex="1">
          <mxGeometry x="595" y="225" width="30" height="30" as="geometry" />
        </mxCell>
        <mxCell id="collsionpoint-189" value="" style="ellipse;whiteSpace=wrap;html=1;aspect=fixed;fontSize=20;fillColor=#eeeeee;strokeColor=#36393d;" parent="1" vertex="1">
          <mxGeometry x="615" y="225" width="30" height="30" as="geometry" />
        </mxCell>
        <mxCell id="collsionpoint-190" value="" style="ellipse;whiteSpace=wrap;html=1;aspect=fixed;fontSize=20;fillColor=#eeeeee;strokeColor=#36393d;" parent="1" vertex="1">
          <mxGeometry x="635" y="225" width="30" height="30" as="geometry" />
        </mxCell>
        <mxCell id="collsionpoint-191" value="" style="ellipse;whiteSpace=wrap;html=1;aspect=fixed;fontSize=20;fillColor=#eeeeee;strokeColor=#36393d;" parent="1" vertex="1">
          <mxGeometry x="655" y="225" width="30" height="30" as="geometry" />
        </mxCell>
        <mxCell id="collsionpoint-192" value="" style="ellipse;whiteSpace=wrap;html=1;aspect=fixed;fontSize=20;fillColor=#eeeeee;strokeColor=#36393d;" parent="1" vertex="1">
          <mxGeometry x="675" y="225" width="30" height="30" as="geometry" />
        </mxCell>
        <mxCell id="collsionpoint-193" value="" style="ellipse;whiteSpace=wrap;html=1;aspect=fixed;fontSize=20;fillColor=#eeeeee;strokeColor=#36393d;" parent="1" vertex="1">
          <mxGeometry x="695" y="225" width="30" height="30" as="geometry" />
        </mxCell>
        <mxCell id="collsionpoint-194" value="" style="ellipse;whiteSpace=wrap;html=1;aspect=fixed;fontSize=20;fillColor=#eeeeee;strokeColor=#36393d;" parent="1" vertex="1">
          <mxGeometry x="715" y="225" width="30" height="30" as="geometry" />
        </mxCell>
        <mxCell id="collsionpoint-195" value="" style="ellipse;whiteSpace=wrap;html=1;aspect=fixed;fontSize=20;fillColor=#eeeeee;strokeColor=#36393d;" parent="1" vertex="1">
          <mxGeometry x="735" y="225" width="30" height="30" as="geometry" />
        </mxCell>
        <mxCell id="collsionpoint-196" value="" style="ellipse;whiteSpace=wrap;html=1;aspect=fixed;fontSize=20;fillColor=#eeeeee;strokeColor=#36393d;" parent="1" vertex="1">
          <mxGeometry x="755" y="225" width="30" height="30" as="geometry" />
        </mxCell>
        <mxCell id="collsionpoint-197" value="" style="ellipse;whiteSpace=wrap;html=1;aspect=fixed;fontSize=20;fillColor=#eeeeee;strokeColor=#36393d;" parent="1" vertex="1">
          <mxGeometry x="775" y="225" width="30" height="30" as="geometry" />
        </mxCell>
        <mxCell id="collsionpoint-198" value="" style="ellipse;whiteSpace=wrap;html=1;aspect=fixed;fontSize=20;fillColor=#eeeeee;strokeColor=#36393d;" parent="1" vertex="1">
          <mxGeometry x="795" y="225" width="30" height="30" as="geometry" />
        </mxCell>
        <mxCell id="collsionpoint-199" value="" style="ellipse;whiteSpace=wrap;html=1;aspect=fixed;fontSize=20;fillColor=#eeeeee;strokeColor=#36393d;" parent="1" vertex="1">
          <mxGeometry x="815" y="225" width="30" height="30" as="geometry" />
        </mxCell>
        <mxCell id="collsionpoint-200" value="" style="ellipse;whiteSpace=wrap;html=1;aspect=fixed;fontSize=20;fillColor=#eeeeee;strokeColor=#36393d;" parent="1" vertex="1">
          <mxGeometry x="835" y="225" width="30" height="30" as="geometry" />
        </mxCell>
        <mxCell id="collsionpoint-201" value="" style="ellipse;whiteSpace=wrap;html=1;aspect=fixed;fontSize=20;fillColor=#eeeeee;strokeColor=#36393d;" parent="1" vertex="1">
          <mxGeometry x="855" y="225" width="30" height="30" as="geometry" />
        </mxCell>
        <mxCell id="collsionpoint-202" value="" style="ellipse;whiteSpace=wrap;html=1;aspect=fixed;fontSize=20;fillColor=#eeeeee;strokeColor=#36393d;" parent="1" vertex="1">
          <mxGeometry x="875" y="225" width="30" height="30" as="geometry" />
        </mxCell>
        <mxCell id="collsionpoint-203" value="" style="ellipse;whiteSpace=wrap;html=1;aspect=fixed;fontSize=20;fillColor=#eeeeee;strokeColor=#36393d;" parent="1" vertex="1">
          <mxGeometry x="895" y="225" width="30" height="30" as="geometry" />
        </mxCell>
        <mxCell id="collsionpoint-204" value="" style="ellipse;whiteSpace=wrap;html=1;aspect=fixed;fontSize=20;fillColor=#eeeeee;strokeColor=#36393d;" parent="1" vertex="1">
          <mxGeometry x="915" y="225" width="30" height="30" as="geometry" />
        </mxCell>
        <mxCell id="collsionpoint-205" value="" style="ellipse;whiteSpace=wrap;html=1;aspect=fixed;fontSize=20;fillColor=#eeeeee;strokeColor=#36393d;" parent="1" vertex="1">
          <mxGeometry x="935" y="225" width="30" height="30" as="geometry" />
        </mxCell>
        <mxCell id="collsionpoint-206" value="" style="ellipse;whiteSpace=wrap;html=1;aspect=fixed;fontSize=20;fillColor=#eeeeee;strokeColor=#36393d;" parent="1" vertex="1">
          <mxGeometry x="955" y="225" width="30" height="30" as="geometry" />
        </mxCell>
        <mxCell id="collsionpoint-207" value="" style="ellipse;whiteSpace=wrap;html=1;aspect=fixed;fontSize=20;fillColor=#eeeeee;strokeColor=#36393d;" parent="1" vertex="1">
          <mxGeometry x="975" y="225" width="30" height="30" as="geometry" />
        </mxCell>
        <mxCell id="collsionpoint-208" value="" style="ellipse;whiteSpace=wrap;html=1;aspect=fixed;fontSize=20;fillColor=#eeeeee;strokeColor=#36393d;" parent="1" vertex="1">
          <mxGeometry x="995" y="225" width="30" height="30" as="geometry" />
        </mxCell>
        <mxCell id="collsionpoint-209" value="" style="ellipse;whiteSpace=wrap;html=1;aspect=fixed;fontSize=20;fillColor=#eeeeee;strokeColor=#36393d;" parent="1" vertex="1">
          <mxGeometry x="1015" y="225" width="30" height="30" as="geometry" />
        </mxCell>
        <mxCell id="collsionpoint-210" value="" style="ellipse;whiteSpace=wrap;html=1;aspect=fixed;fontSize=20;fillColor=#eeeeee;strokeColor=#36393d;" parent="1" vertex="1">
          <mxGeometry x="1035" y="225" width="30" height="30" as="geometry" />
        </mxCell>
        <mxCell id="collsionpoint-211" value="" style="ellipse;whiteSpace=wrap;html=1;aspect=fixed;fontSize=20;fillColor=#eeeeee;strokeColor=#36393d;" parent="1" vertex="1">
          <mxGeometry x="1055" y="225" width="30" height="30" as="geometry" />
        </mxCell>
        <mxCell id="collsionpoint-212" value="" style="ellipse;whiteSpace=wrap;html=1;aspect=fixed;fontSize=20;fillColor=#eeeeee;strokeColor=#36393d;" parent="1" vertex="1">
          <mxGeometry x="1075" y="225" width="30" height="30" as="geometry" />
        </mxCell>
        <mxCell id="collsionpoint-213" value="" style="ellipse;whiteSpace=wrap;html=1;aspect=fixed;fontSize=20;fillColor=#eeeeee;strokeColor=#36393d;" parent="1" vertex="1">
          <mxGeometry x="1095" y="225" width="30" height="30" as="geometry" />
        </mxCell>
        <mxCell id="collsionpoint-214" value="" style="ellipse;whiteSpace=wrap;html=1;aspect=fixed;fontSize=20;fillColor=#eeeeee;strokeColor=#36393d;" parent="1" vertex="1">
          <mxGeometry x="1115" y="225" width="30" height="30" as="geometry" />
        </mxCell>
        <mxCell id="collsionpoint-215" value="" style="ellipse;whiteSpace=wrap;html=1;aspect=fixed;fontSize=20;fillColor=#eeeeee;strokeColor=#36393d;" parent="1" vertex="1">
          <mxGeometry x="1135" y="225" width="30" height="30" as="geometry" />
        </mxCell>
        <mxCell id="collsionpoint-216" value="" style="ellipse;whiteSpace=wrap;html=1;aspect=fixed;fontSize=20;fillColor=#eeeeee;strokeColor=#36393d;" parent="1" vertex="1">
          <mxGeometry x="1155" y="225" width="30" height="30" as="geometry" />
        </mxCell>
        <mxCell id="collsionpoint-217" value="" style="ellipse;whiteSpace=wrap;html=1;aspect=fixed;fontSize=20;fillColor=#eeeeee;strokeColor=#36393d;" parent="1" vertex="1">
          <mxGeometry x="1175" y="225" width="30" height="30" as="geometry" />
        </mxCell>
        <mxCell id="collsionpoint-218" value="" style="ellipse;whiteSpace=wrap;html=1;aspect=fixed;fontSize=20;fillColor=#eeeeee;strokeColor=#36393d;" parent="1" vertex="1">
          <mxGeometry x="1195" y="225" width="30" height="30" as="geometry" />
        </mxCell>
        <mxCell id="collsionpoint-219" value="" style="ellipse;whiteSpace=wrap;html=1;aspect=fixed;fontSize=20;fillColor=#eeeeee;strokeColor=#36393d;" parent="1" vertex="1">
          <mxGeometry x="1215" y="225" width="30" height="30" as="geometry" />
        </mxCell>
        <mxCell id="collsionpoint-220" value="" style="ellipse;whiteSpace=wrap;html=1;aspect=fixed;fontSize=20;fillColor=#eeeeee;strokeColor=#36393d;" parent="1" vertex="1">
          <mxGeometry x="1235" y="225" width="30" height="30" as="geometry" />
        </mxCell>
        <mxCell id="routepoint-0" value="" style="shape=waypoint;sketch=0;fillStyle=solid;size=6;pointerEvents=1;points=[];fillColor=none;resizable=0;rotatable=0;perimeter=centerPerimeter;snapToPoint=1;fontSize=20;" parent="1" vertex="1">
          <mxGeometry x="-10" y="40" width="20" height="20" as="geometry" />
        </mxCell>
        <mxCell id="routepointtext-0" value="\(p_{0}\)" style="text;html=1;align=center;verticalAlign=middle;resizable=0;points=[];autosize=1;strokeColor=none;fillColor=none;fontSize=20;" parent="1" vertex="1">
          <mxGeometry x="-15" y="15" width="70" height="30" as="geometry" />
        </mxCell>
        <mxCell id="routepoint-1" value="" style="shape=waypoint;sketch=0;fillStyle=solid;size=6;pointerEvents=1;points=[];fillColor=none;resizable=0;rotatable=0;perimeter=centerPerimeter;snapToPoint=1;fontSize=20;" parent="1" vertex="1">
          <mxGeometry x="-10" y="40" width="20" height="20" as="geometry" />
        </mxCell>
        <mxCell id="routepointtext-1" value="\(p_{1}\)" style="text;html=1;align=center;verticalAlign=middle;resizable=0;points=[];autosize=1;strokeColor=none;fillColor=none;fontSize=20;" parent="1" vertex="1">
          <mxGeometry x="-15" y="40" width="70" height="30" as="geometry" />
        </mxCell>
        <mxCell id="routepoint-2" value="" style="shape=waypoint;sketch=0;fillStyle=solid;size=6;pointerEvents=1;points=[];fillColor=none;resizable=0;rotatable=0;perimeter=centerPerimeter;snapToPoint=1;fontSize=20;" parent="1" vertex="1">
          <mxGeometry x="1250" y="190" width="20" height="20" as="geometry" />
        </mxCell>
        <mxCell id="routepointtext-2" value="\(p_{2}\)" style="text;html=1;align=center;verticalAlign=middle;resizable=0;points=[];autosize=1;strokeColor=none;fillColor=none;fontSize=20;" parent="1" vertex="1">
          <mxGeometry x="1205" y="165" width="70" height="30" as="geometry" />
        </mxCell>
        <mxCell id="routepoint-3" value="" style="shape=waypoint;sketch=0;fillStyle=solid;size=6;pointerEvents=1;points=[];fillColor=none;resizable=0;rotatable=0;perimeter=centerPerimeter;snapToPoint=1;fontSize=20;" parent="1" vertex="1">
          <mxGeometry x="1250" y="190" width="20" height="20" as="geometry" />
        </mxCell>
        <mxCell id="routepointtext-3" value="\(p_{3}\)" style="text;html=1;align=center;verticalAlign=middle;resizable=0;points=[];autosize=1;strokeColor=none;fillColor=none;fontSize=20;" parent="1" vertex="1">
          <mxGeometry x="1205" y="190" width="70" height="30" as="geometry" />
        </mxCell>
      </root>
    </mxGraphModel>
  </diagram>
</mxfile>
